HIERARCHY
ROOT SimulationBone
{
	OFFSET 0.000000 0.000000 0.000000
	CHANNELS 6 Xposition Yposition Zposition Zrotation Yrotation Xrotation 
	JOINT Hips
	{
		OFFSET 0.000000 0.000000 0.000000
		CHANNELS 6 Xposition Yposition Zposition Zrotation Yrotation Xrotation 
		JOINT RightUpLeg
		{
			OFFSET 0.103458 1.857820 10.548502
			CHANNELS 3 Zrotation Yrotation Xrotation
			JOINT RightLeg
			{
				OFFSET 43.500000 -0.000023 -0.000011
				CHANNELS 3 Zrotation Yrotation Xrotation
				JOINT RightFoot
				{
					OFFSET 42.372192 0.000038 0.000002
					CHANNELS 3 Zrotation Yrotation Xrotation
					JOINT RightToe
					{
						OFFSET 17.299992 -0.000004 0.000006
						CHANNELS 3 Zrotation Yrotation Xrotation
						End Site
						{
							OFFSET 0.000000 0.000000 0.000000
						}
					}
				}
			}
		}
		JOINT LeftUpLeg
		{
			OFFSET 0.103461 1.857814 -10.548508
			CHANNELS 3 Zrotation Yrotation Xrotation
			JOINT LeftLeg
			{
				OFFSET 43.500042 -0.000015 0.000008
				CHANNELS 3 Zrotation Yrotation Xrotation
				JOINT LeftFoot
				{
					OFFSET 42.372253 0.000008 0.000006
					CHANNELS 3 Zrotation Yrotation Xrotation
					JOINT LeftToe
					{
						OFFSET 17.299973 -0.000014 0.000011
						CHANNELS 3 Zrotation Yrotation Xrotation
						End Site
						{
							OFFSET 0.000000 0.000000 0.000000
						}
					}
				}
			}
		}
		JOINT Spine
		{
			OFFSET 6.901966 -2.603737 -0.000007
			CHANNELS 3 Zrotation Yrotation Xrotation
			JOINT Spine1
			{
				OFFSET 12.588102 0.000017 0.000001
				CHANNELS 3 Zrotation Yrotation Xrotation
				JOINT Spine2
				{
					OFFSET 12.343197 -0.000013 0.000000
					CHANNELS 3 Zrotation Yrotation Xrotation
					JOINT Neck
					{
						OFFSET 25.832905 -0.000008 0.000000
						CHANNELS 3 Zrotation Yrotation Xrotation
						JOINT Head
						{
							OFFSET 11.766610 0.000009 -0.000002
							CHANNELS 3 Zrotation Yrotation Xrotation
							End Site
							{
								OFFSET 0.000000 0.000000 0.000000
							}
						}
					}
					JOINT RightShoulder
					{
						OFFSET 19.745903 -1.480377 6.000115
						CHANNELS 3 Zrotation Yrotation Xrotation
						JOINT RightArm
						{
							OFFSET 11.284125 -0.000014 -0.000024
							CHANNELS 3 Zrotation Yrotation Xrotation
							JOINT RightForeArm
							{
								OFFSET 33.000046 -0.000012 0.000029
								CHANNELS 3 Zrotation Yrotation Xrotation
								JOINT RightHand
								{
									OFFSET 25.199989 0.000034 0.000012
									CHANNELS 3 Zrotation Yrotation Xrotation
									End Site
									{
										OFFSET 0.000000 0.000000 0.000000
									}
								}
							}
						}
					}
					JOINT LeftShoulder
					{
						OFFSET 19.746098 -1.480362 -6.000071
						CHANNELS 3 Zrotation Yrotation Xrotation
						JOINT LeftArm
						{
							OFFSET 11.284137 -0.000006 -0.000008
							CHANNELS 3 Zrotation Yrotation Xrotation
							JOINT LeftForeArm
							{
								OFFSET 33.000095 0.000017 0.000000
								CHANNELS 3 Zrotation Yrotation Xrotation
								JOINT LeftHand
								{
									OFFSET 25.199778 0.000144 0.000423
									CHANNELS 3 Zrotation Yrotation Xrotation
									End Site
									{
										OFFSET 0.000000 0.000000 0.000000
									}
								}
							}
						}
					}
				}
			}
		}
	}
}
MOTION
Frames: 10
Frame Time: 0.016667
-261.808357 0.000000 77.399892 0.000000 99.216961 0.000000 -16.655610 86.898537 -0.790037 68.182775 4.313571 175.481786 -171.442871 -5.911809 177.073597 -28.877431 -2.760241 -6.191343 66.936181 2.051249 -7.018496 21.454548 0.003111 0.000016 117.259116 -4.515111 176.427994 -56.379338 3.516681 6.241514 75.675954 -2.732139 6.453848 21.454551 -0.003097 -0.000001 11.974397 2.482559 -2.921091 13.822363 5.296454 -5.529467 13.504432 5.262894 -5.561306 -16.974663 9.059250 10.978021 -22.465319 -8.425368 17.556520 -159.555075 -78.464019 -22.307007 -42.049362 27.810813 -10.608103 -122.644897 2.481197 3.594733 -16.732913 -0.398187 32.051860 -162.188960 77.821401 19.674320 43.263660 -35.355128 -80.068107 -59.720011 11.930988 -1.879667 -12.719465 2.813932 -30.507357 
-261.903136 0.000000 73.389581 0.000000 97.303204 0.000000 -15.627505 86.597095 -0.070106 69.496258 4.960169 177.103438 -170.878778 -5.231140 178.756168 -35.577947 -1.474784 -6.509730 70.453639 3.423188 -4.183251 21.454562 0.003112 0.000012 119.420388 -4.609867 176.102253 -47.855548 3.584728 6.411058 75.376596 -2.848758 6.372329 21.454557 -0.003109 -0.000003 11.816645 2.534629 -2.996888 13.500960 5.401787 -5.682716 13.183049 5.367310 -5.715181 -17.457320 8.929127 11.196769 -21.792701 -8.575400 17.748988 -159.804397 -77.155773 -22.073501 -38.015571 30.165625 -6.258255 -120.424921 2.175454 3.539320 -16.994857 -0.035448 32.825223 -162.484956 76.970247 19.381973 43.076330 -36.533957 -77.531662 -59.989414 11.878091 -1.884428 -12.445650 4.701006 -27.578467 
-261.968056 0.000000 69.341912 0.000000 95.517824 0.000000 -14.475253 86.081932 0.557558 71.325118 5.647684 178.600286 -170.045278 -4.472192 -178.441984 -42.959092 -1.274019 -7.150771 72.516322 4.112945 -3.473957 21.454562 0.003108 0.000014 122.744864 -4.940507 175.578837 -39.060024 3.779345 7.140828 75.108229 -1.914067 11.517494 21.454557 -0.003106 -0.000003 11.770281 2.597626 -2.989473 13.406191 5.524254 -5.663258 13.088201 5.489885 -5.696465 -17.491954 8.819915 11.250572 -21.837739 -8.857219 17.890986 -161.140990 -76.076001 -20.724004 -33.793572 32.540533 -2.182164 -117.713392 1.849868 3.436862 -16.958019 0.513330 33.881149 -162.031006 76.040990 19.855778 42.143270 -38.193901 -74.973729 -59.692950 12.019241 -1.884658 -11.729095 6.839117 -23.056553 
-262.005306 0.000000 65.258356 0.000000 93.863120 0.000000 -13.281284 85.402579 1.064936 73.409307 6.319925 179.860497 -169.260191 -3.669324 -175.554876 -50.909609 -1.590137 -7.791416 73.347740 4.451077 -3.915246 21.454554 0.003103 0.000018 126.359237 -5.422881 175.739026 -32.161628 3.962309 7.805710 74.282191 -0.885723 16.416853 21.454554 -0.003096 -0.000002 11.762709 2.663406 -2.886721 13.393974 5.643177 -5.451174 13.075797 5.610069 -5.485116 -17.201338 8.624703 11.186789 -22.201873 -9.128678 17.902079 -162.347408 -75.071065 -19.501943 -29.623745 34.835913 1.843562 -114.516942 1.406982 3.323294 -16.811853 1.123585 34.941331 -161.347109 75.015785 20.567379 40.623639 -40.041322 -72.054746 -59.153859 12.215296 -1.879130 -10.552636 8.939677 -17.655999 
-262.017073 0.000000 61.140384 0.000000 92.339727 0.000000 -12.130135 84.608566 1.434350 75.481792 6.960566 -179.241023 -168.871441 -2.802003 -173.630444 -59.336489 -1.799377 -8.254600 73.219524 4.638144 -4.488261 21.454550 0.003100 0.000019 129.372361 -6.083500 177.481946 -29.422658 4.191447 7.742024 72.037355 -0.767105 15.649625 21.454553 -0.003090 0.000000 11.721353 2.723799 -2.676643 13.320131 5.737723 -5.027074 13.001663 5.707157 -5.061621 -16.708202 8.238445 11.051748 -22.484986 -9.250839 17.697589 -162.498054 -74.005608 -19.359007 -25.772202 36.955929 5.996443 -110.839202 0.745450 3.221166 -16.755359 1.677723 35.723548 -160.836064 73.879106 21.105598 38.692047 -41.783244 -68.454723 -58.695940 12.327070 -1.869125 -8.997637 10.725130 -12.120455 
-262.005545 0.000000 56.989468 0.000000 90.946904 0.000000 -11.081218 83.741349 1.678264 77.365976 7.583407 -178.780442 -169.133454 -1.925623 -173.508373 -68.128086 -1.347023 -8.522520 72.545955 4.806713 -4.441607 21.454553 0.003103 0.000016 131.181722 -6.964774 -178.838596 -32.263318 4.454636 6.547088 68.598213 -2.607740 6.511125 21.454554 -0.003093 0.000001 11.597236 2.773717 -2.357077 13.086857 5.796278 -4.389812 12.768023 5.769551 -4.424762 -16.029330 7.590968 10.875120 -22.506358 -9.146291 17.234314 -161.245463 -72.820437 -20.658458 -22.392168 38.862135 10.308886 -106.722006 -0.157767 3.121794 -16.903886 2.087074 36.069309 -160.619421 72.655486 21.344697 36.495031 -43.238982 -64.052787 -58.552948 12.302560 -1.861626 -7.225640 12.035468 -7.072515 
-261.972911 0.000000 52.807077 0.000000 89.682526 0.000000 -10.086116 82.810081 1.897789 79.262953 8.198284 -178.600373 -169.814253 -1.533988 -175.158357 -77.016515 -0.072206 -8.620307 72.272792 4.914094 -4.147033 21.454558 0.003108 0.000014 132.457134 -8.007709 -175.160666 -38.650653 4.433119 4.962117 68.305934 -4.783244 -3.030102 21.454555 -0.003095 0.000001 11.435937 2.818481 -1.964642 12.783292 5.836736 -3.609534 12.464090 5.814717 -3.644781 -14.758319 6.753035 10.622030 -22.959881 -8.990428 16.646207 -159.625003 -71.763490 -22.338988 -19.068763 40.700785 14.410731 -102.371400 -0.995451 2.969912 -17.005141 2.356043 36.331718 -160.120001 71.515903 21.874575 33.909942 -44.685733 -59.347800 -58.595406 12.438047 -1.872989 -5.362343 13.006155 -2.535122 
-261.921358 0.000000 48.594682 0.000000 88.544372 0.000000 -9.086387 81.853352 2.171510 81.349911 8.791301 -178.490396 -170.677358 -2.051857 -178.098408 -85.706959 1.937065 -8.661788 73.132535 4.944525 -4.039918 21.454556 0.003113 0.000018 134.125701 -9.121615 -173.447493 -45.859646 4.057411 3.885321 73.735530 -4.517995 -5.397959 21.454551 -0.003088 0.000002 11.289829 2.868759 -1.550172 12.511519 5.888260 -2.783795 12.192004 5.871221 -2.819399 -12.705042 5.830201 10.264929 -24.345769 -8.964505 16.077878 -158.498639 -71.031007 -23.509594 -15.336731 42.549243 18.105519 -97.986267 -1.618395 2.786542 -16.824786 2.480818 36.825988 -159.063220 70.587036 22.977358 30.667987 -46.402313 -54.614346 -58.674451 12.989626 -1.914717 -3.591089 13.733352 1.217019 
-261.853074 0.000000 44.353754 0.000000 87.528624 0.000000 -8.122721 81.059792 2.425094 83.322735 9.349026 -178.294218 -172.158757 -3.130083 179.032563 -93.940358 3.883538 -9.009647 74.487098 5.220834 -3.692799 21.454553 0.003114 0.000022 136.591966 -10.207506 -173.349081 -51.817926 3.893343 3.394949 81.087274 -3.415432 -3.991985 21.454548 -0.003079 0.000002 11.143992 2.949026 -1.182945 12.238011 6.006550 -2.049279 11.918234 5.993936 -2.085633 -10.970923 4.898132 9.927830 -25.529741 -8.962526 15.548229 -157.979966 -70.211890 -24.057988 -11.229874 44.082757 22.070517 -93.565155 -2.866334 2.706692 -16.590058 2.340258 37.191274 -158.542022 69.703000 23.529772 26.431245 -48.138127 -48.872881 -58.926336 13.704585 -1.970828 -2.536843 13.939493 2.267191 
-261.770248 0.000000 40.085764 0.000000 86.631502 0.000000 -7.263851 80.605056 2.571619 84.842059 9.828400 -177.921555 -174.816428 -4.267579 177.460985 -101.465474 4.976642 -9.776353 75.548656 5.995033 -2.678756 21.454552 0.003109 0.000022 139.982792 -11.141883 -174.010657 -55.119753 4.374837 3.239243 86.275344 -3.073760 -3.879590 21.454547 -0.003077 0.000002 10.969238 3.065553 -0.916148 11.901925 6.208986 -1.513471 11.581911 6.199595 -1.551076 -10.585660 4.018498 9.742797 -25.377722 -8.842263 15.035458 -157.891076 -68.939355 -24.173222 -6.956108 44.973122 26.790671 -89.119680 -5.420883 2.722127 -16.558440 1.848411 37.137343 -159.413658 68.750596 22.645563 21.064997 -49.460131 -41.412935 -59.586499 14.236748 -2.027295 -2.690358 13.386570 -0.785682 
